<?xml version="1.0" standalone="no"?><!DOCTYPE svg PUBLIC "-//W3C//DTD SVG 1.1//EN" "http://www.w3.org/Graphics/SVG/1.1/DTD/svg11.dtd"><svg t="1537355719242" class="icon" style="" viewBox="0 0 1024 1024" version="1.1" xmlns="http://www.w3.org/2000/svg" p-id="19904" xmlns:xlink="http://www.w3.org/1999/xlink" width="200" height="200"><defs><style type="text/css"></style></defs><path d="M512 963.84A451.84 451.84 0 1 0 60.16 512 451.84 451.84 0 0 0 512 963.84zM512 1024a512 512 0 1 1 512-512 512 512 0 0 1-512 512z m-43.52-555.52H271.36a44.16 44.16 0 1 0 0 88.32h197.12v196.48a44.16 44.16 0 1 0 88.32 0V556.8h196.48a43.52 43.52 0 0 0 38.4-22.4 42.24 42.24 0 0 0 0-44.16 44.16 44.16 0 0 0-38.4-21.76H556.8V271.36a44.16 44.16 0 0 0-88.32 0z" fill="#38ADFF" p-id="19905"></path></svg>